<svg width="82" height="77" viewBox="0 0 82 77" fill="none" xmlns="http://www.w3.org/2000/svg">
<path d="M8.45898 12.4588V72.4296C8.45898 74.0865 9.80213 75.4296 11.459 75.4296H62.3139C63.9707 75.4296 65.3139 74.0865 65.3139 72.4296V67.9376" stroke="#3967F2" stroke-width="1.5" stroke-linecap="round" stroke-linejoin="round"/>
<path d="M7.35934 21.9774H3C1.89543 21.9774 1 21.0819 1 19.9774V9.88903C1 5.34122 4.68673 1.65448 9.23455 1.65448V1.65448C13.7824 1.65448 17.4691 5.34121 17.4691 9.88903V22.8534" stroke="#002996" stroke-width="1.5" stroke-linecap="round" stroke-linejoin="round"/>
<path d="M9.23193 1.57031H65.4807C68.7944 1.57031 71.4807 4.2566 71.4807 7.57031V65.0001C71.4807 66.6578 70.1362 68.0012 68.4785 68.0001L20.4645 67.9656C18.8084 67.9644 17.4666 66.6216 17.4666 64.9656V15.6507" stroke="#002996" stroke-width="1.5" stroke-linecap="round" stroke-linejoin="round"/>
<rect x="27.4688" y="13.3596" width="8" height="8" rx="2" fill="#4D99F6"/>
<path d="M40.8184 17.4461H52.8184" stroke="#002996" stroke-width="1.5" stroke-linecap="round" stroke-linejoin="round"/>
<rect x="27.4688" y="31.3596" width="8" height="8" rx="2" fill="#4D99F6"/>
<path d="M40.8184 35.4461H52.8184" stroke="#002996" stroke-width="1.5" stroke-linecap="round" stroke-linejoin="round"/>
<rect x="27.4688" y="49.3596" width="8" height="8" rx="2" fill="#4D99F6"/>
<path d="M40.8184 53.4461H52.8184" stroke="#002996" stroke-width="1.5" stroke-linecap="round" stroke-linejoin="round"/>
<path d="M53.5967 54.5008V59.4984H58.8756L81.0002 37.3177L76.0586 32.2078L53.5967 54.5008Z" fill="#F4F8FA" stroke="#3967F2" stroke-width="1.5" stroke-linecap="round" stroke-linejoin="round"/>
<path d="M76.6226 40.9083L72.3506 36.7091L76.086 33.0242L80.219 37.2116L76.6226 40.9083Z" fill="#3967F2"/>
</svg>
