<svg width="63" height="46" viewBox="0 0 63 46" fill="none" xmlns="http://www.w3.org/2000/svg">
<path d="M35.7397 34.8749C36.6247 36.1771 39.7019 38.7804 44.3315 38.7804C48.6324 38.7804 51.6262 36.3334 52.4596 34.8749" stroke="#3967F2" stroke-width="1.5" stroke-linecap="round" stroke-linejoin="round"/>
<path d="M38.765 28.2607V31.0884C38.765 32.3434 37.9839 33.4657 36.807 33.9016L31.7327 35.7812" stroke="#002996" stroke-width="1.5" stroke-linecap="round" stroke-linejoin="round"/>
<path d="M49.5527 28.1106V31.3411C49.5527 32.6421 50.3912 33.7948 51.629 34.1954L55.9625 35.5978C59.2631 36.6661 61.4991 39.7399 61.4991 43.2092V44.2756" stroke="#002996" stroke-width="1.5" stroke-linecap="round" stroke-linejoin="round"/>
<path d="M35.2211 17.9333C32.5312 15.5302 29.3642 8.89936 35.9396 6.64665C35.9396 3.95457 39.4077 1.48663 43.7401 1.74276C49.4588 2.08084 55.5175 4.71787 55.5175 10.1505C55.5175 13.3247 54.1042 16.5344 53.082 17.9333" stroke="#3967F2" stroke-width="1.5" stroke-linecap="round" stroke-linejoin="round"/>
<path d="M35.2483 17.6791V21.0526C35.2483 25.9351 39.2064 29.8932 44.0889 29.8932V29.8932C48.9715 29.8932 52.9296 25.9351 52.9296 21.0526V15.9322C52.9296 13.1708 50.691 10.9322 47.9296 10.9322H39.6339C37.835 10.9322 36.3768 12.3904 36.3768 14.1893V14.1893" stroke="#002996" stroke-width="1.5" stroke-linecap="round" stroke-linejoin="round"/>
<path d="M7.64502 34.1154C8.74429 36.0551 11.8737 40.235 15.5974 41.4376C17.3105 40.6941 21.2605 38.1887 23.3554 34.1154" stroke="#3967F2" stroke-width="1.5" stroke-linecap="round" stroke-linejoin="round"/>
<path d="M3.60278 29.5859H27.0367V16.9929C27.0367 10.5219 21.7908 5.276 15.3197 5.276C8.84864 5.276 3.60278 10.5219 3.60278 16.993V29.5859Z" stroke="#3967F2" stroke-width="1.5" stroke-linecap="round" stroke-linejoin="round"/>
<path d="M30.2582 44.0671V41.739C30.2582 38.1161 27.8235 34.9454 24.3233 34.0101L21.0396 33.1328C20.1646 32.899 19.5559 32.1063 19.5559 31.2006V28.822" stroke="#002996" stroke-width="1.5" stroke-linecap="round" stroke-linejoin="round"/>
<path d="M9.9129 14.7172L8.70109 15.9842C8.10102 16.6116 7.76611 17.4463 7.76611 18.3145V21.7029C7.76611 26.0381 11.2805 29.5526 15.6158 29.5526V29.5526C19.951 29.5526 23.4655 26.0381 23.4655 21.7029V19.0184C23.4655 17.768 22.7283 16.6352 21.585 16.1288L11.7517 11.7734" stroke="#002996" stroke-width="1.5" stroke-linecap="round" stroke-linejoin="round"/>
<path d="M1.50083 44.0671V41.739C1.50083 38.1161 3.93558 34.9453 7.43574 34.0101L10.7194 33.1328C11.5944 32.899 12.2031 32.1063 12.2031 31.2005V28.9968" stroke="#002996" stroke-width="1.5" stroke-linecap="round" stroke-linejoin="round"/>
</svg>
