<svg width="31" height="41" viewBox="0 0 31 41" fill="none" xmlns="http://www.w3.org/2000/svg">
<path d="M7.26782 30.1154C8.3671 32.055 11.4966 36.2349 15.2202 37.4375C16.9333 36.694 20.8833 34.1886 22.9782 30.1154" stroke="#3967F2" stroke-width="1.5" stroke-linecap="round" stroke-linejoin="round"/>
<path d="M1.12412 40.0669V37.7389C1.12412 34.1159 3.55887 30.9452 7.05903 30.01L10.3427 29.1326C11.2177 28.8988 11.8264 28.1062 11.8264 27.2004V24.9967" stroke="#002996" stroke-width="1.5" stroke-linecap="round" stroke-linejoin="round"/>
<path d="M29.881 40.0669V37.7389C29.881 34.1159 27.4463 30.9452 23.9461 30.01L20.6624 29.1327C19.7874 28.8989 19.1787 28.1062 19.1787 27.2004V24.8219" stroke="#002996" stroke-width="1.5" stroke-linecap="round" stroke-linejoin="round"/>
<path d="M7.2585 17.9049C5.50861 18.2009 1.50739 20.0172 2.5415 25.4428C5.40706 25.4428 7.81526 23.3251 7.81526 20.5431" stroke="#3967F2" stroke-width="1.5" stroke-linecap="round" stroke-linejoin="round"/>
<path d="M23.1228 17.9049C24.8727 18.2009 28.874 20.0172 27.8398 25.4428C24.9743 25.4428 22.5661 23.3251 22.5661 20.5431" stroke="#3967F2" stroke-width="1.5" stroke-linecap="round" stroke-linejoin="round"/>
<path d="M7.26726 17.7515C6.29234 16.8471 4.41573 14.0154 4.70866 9.92446C5.07482 4.81079 9.48482 1.62782 15.1462 1.62781C19.8957 1.6278 25.1699 4.08024 25.6395 9.92446C26.0117 14.5566 23.9087 17.0906 23.0042 17.7515" stroke="#3967F2" stroke-width="1.5" stroke-linecap="round" stroke-linejoin="round"/>
<path d="M7.2854 17.7552V14.594C12.2894 12.6624 15.143 7.8772 15.143 7.8772C17.2063 11.521 21.4501 14.2721 23.0013 14.594V17.7552C23.0013 22.0951 19.4832 25.6132 15.1433 25.6132C10.8035 25.6132 7.2854 22.0951 7.2854 17.7552Z" stroke="#002996" stroke-width="1.5" stroke-linecap="round" stroke-linejoin="round"/>
</svg>
