<svg width="74" height="83" viewBox="0 0 74 83" fill="none" xmlns="http://www.w3.org/2000/svg">
<path d="M8.50293 24.8314H72.528" stroke="#3967F2" stroke-width="1.5" stroke-linecap="round" stroke-linejoin="round"/>
<rect x="1.47217" y="8.0155" width="71.026" height="73.4142" rx="5" stroke="#002996" stroke-width="1.5" stroke-linecap="round" stroke-linejoin="round"/>
<path d="M8.18604 13.0155C8.18604 10.2541 10.4246 8.0155 13.186 8.0155H67.4981C70.2595 8.0155 72.4981 10.2541 72.4981 13.0155V69.7157C72.4981 72.4772 70.2595 74.7157 67.4981 74.7157H13.186C10.4246 74.7157 8.18604 72.4772 8.18604 69.7157V13.0155Z" stroke="#002996" stroke-width="1.5" stroke-linecap="round" stroke-linejoin="round"/>
<path d="M48.5045 63.2396H8.58203" stroke="#3967F2" stroke-width="1.5" stroke-linecap="round" stroke-linejoin="round"/>
<path d="M28.3625 68.1853H18.6528" stroke="#3967F2" stroke-width="1.5" stroke-linecap="round" stroke-linejoin="round"/>
<path d="M53.7536 61.1704C53.3489 56.272 53.6912 44.7481 58.2973 37.8398" stroke="#002996" stroke-width="1.5" stroke-linecap="round" stroke-linejoin="round"/>
<path d="M58.3092 37.6755C55.8215 37.2127 50.3253 38.1615 48.2427 45.6596" stroke="#002996" stroke-width="1.5" stroke-linecap="round" stroke-linejoin="round"/>
<path d="M61.34 46.7962C61.311 47.2094 61.6225 47.5678 62.0357 47.5968C62.4489 47.6257 62.8074 47.3142 62.8363 46.901L61.34 46.7962ZM57.9676 38.2821C59.0792 38.772 61.7329 41.1873 61.34 46.7962L62.8363 46.901C63.2665 40.7603 60.3492 37.6924 58.5725 36.9095L57.9676 38.2821Z" fill="#002996"/>
<path d="M58.2568 37.5805C57.0075 35.5625 53.1005 32.5136 47.4668 36.4618" stroke="#002996" stroke-width="1.5" stroke-linecap="round" stroke-linejoin="round"/>
<path d="M58.2046 37.4727C60.3744 36.4254 65.4024 35.8867 68.1553 42.1111" stroke="#002996" stroke-width="1.5" stroke-linecap="round" stroke-linejoin="round"/>
<path d="M58.2549 37.4041C58.7882 35.7023 61.0473 33.013 65.0293 33.3301" stroke="#002996" stroke-width="1.5" stroke-linecap="round" stroke-linejoin="round"/>
<path d="M58.2628 37.4045C58.6571 35.9177 58.1606 32.7046 55.8242 31.0941" stroke="#002996" stroke-width="1.5" stroke-linecap="round" stroke-linejoin="round"/>
<circle cx="30.8352" cy="44.7226" r="8.95193" fill="#4D99F6"/>
<path d="M72.511 58.8709V58.8709C57.5051 58.8709 42.9188 63.825 31.0168 72.964L29.0234 74.4946" stroke="#002996" stroke-width="1.5" stroke-linecap="round" stroke-linejoin="round"/>
<circle cx="24.6801" cy="16.8734" r="3.91647" stroke="#002996" stroke-width="1.5" stroke-linecap="round" stroke-linejoin="round"/>
<circle cx="60.4882" cy="16.8734" r="3.91647" stroke="#002996" stroke-width="1.5" stroke-linecap="round" stroke-linejoin="round"/>
<path d="M14.5615 6.77544V6.42969C14.5615 3.66826 16.8001 1.42969 19.5615 1.42969H19.6808C22.4422 1.42969 24.6808 3.66826 24.6808 6.42969V16.104" stroke="#3967F2" stroke-width="1.5" stroke-linecap="round" stroke-linejoin="round"/>
<path d="M50.3691 6.77544V6.42969C50.3691 3.66826 52.6077 1.42969 55.3691 1.42969H55.4884C58.2499 1.42969 60.4884 3.66826 60.4884 6.42969V16.104" stroke="#3967F2" stroke-width="1.5" stroke-linecap="round" stroke-linejoin="round"/>
</svg>
