<svg width="78" height="82" viewBox="0 0 78 82" fill="none" xmlns="http://www.w3.org/2000/svg">
<path d="M75.5522 37.6073C71.0168 36.5813 66.7918 34.2068 60.5363 37.6073C55.1815 40.5181 51.4089 44.4946 45.8476 43.1808C40.1985 41.8463 41.0145 36.4367 35.7375 31.948C33.1543 29.7507 29.3716 30.1503 25.8855 30.3993" stroke="#002996" stroke-width="1.7" stroke-linecap="round" stroke-linejoin="round"/>
<path d="M21.6952 73.7221C27.3192 70.5019 36.0972 65.9063 32.5177 57.3108C30.1912 51.724 23.4724 55.817 21.1445 42.7811" stroke="#002996" stroke-width="1.7" stroke-linecap="round" stroke-linejoin="round"/>
<path d="M33.9624 79.3618C33.9624 72.9642 39.2547 62.1531 48.8907 62.3014C60.9357 62.4867 71.2062 64.5117 76.3952 54.1336" stroke="#002996" stroke-width="1.7" stroke-linecap="round" stroke-linejoin="round"/>
<path d="M8.30286 46.6408C8.30286 65.6164 23.6856 80.9992 42.6612 80.9992C61.6369 80.9992 77.0196 65.6164 77.0196 46.6408C77.0196 38.3851 74.1079 30.8094 69.2553 24.8848M19.931 20.8753C25.9882 15.5275 33.9458 12.2824 42.6612 12.2824C44.981 12.2824 47.2471 12.5123 49.4379 12.9506" stroke="#002996" stroke-width="1.7" stroke-linecap="round" stroke-linejoin="round"/>
<path d="M25.8619 31.5266C25.8619 40.2628 13.4974 50.8776 13.4974 50.8776C13.4974 50.8776 1.13293 40.2628 1.13293 31.5266C1.13293 24.6979 6.6687 19.1622 13.4974 19.1622C20.3261 19.1622 25.8619 24.6979 25.8619 31.5266Z" stroke="#002996" stroke-width="1.7" stroke-linecap="round" stroke-linejoin="round"/>
<circle cx="13.4962" cy="31.1404" r="5.90856" stroke="#3967F2" stroke-width="1.7" stroke-linecap="round" stroke-linejoin="round"/>
<path d="M74.1205 13.3637C74.1205 22.0998 61.7561 32.7146 61.7561 32.7146C61.7561 32.7146 49.3916 22.0998 49.3916 13.3637C49.3916 6.53497 54.9274 0.999207 61.7561 0.999207C68.5848 0.999207 74.1205 6.53497 74.1205 13.3637Z" stroke="#002996" stroke-width="1.7" stroke-linecap="round" stroke-linejoin="round"/>
<circle cx="61.7557" cy="12.9774" r="5.90856" stroke="#3967F2" stroke-width="1.7" stroke-linecap="round" stroke-linejoin="round"/>
<path d="M62.5833 54.3711C62.5833 61.9095 53.3767 70.8468 50.8523 73.1557C50.4879 73.489 49.9498 73.489 49.5854 73.1557C47.0609 70.8468 37.8544 61.9095 37.8544 54.3711C37.8544 47.5424 43.3901 42.0067 50.2188 42.0067C57.0475 42.0067 62.5833 47.5424 62.5833 54.3711Z" fill="#4D99F6"/>
<circle cx="50.2176" cy="53.9849" r="5.90856" fill="white"/>
</svg>
