<svg width="82" height="81" viewBox="0 0 82 81" fill="none" xmlns="http://www.w3.org/2000/svg">
<path d="M21.8396 68.7484H81.1567" stroke="#3967F2" stroke-width="1.5" stroke-linecap="round" stroke-linejoin="round"/>
<path d="M47.8376 73.7968H73.2429" stroke="#3967F2" stroke-width="1.5" stroke-linecap="round" stroke-linejoin="round"/>
<path d="M53.7595 78.9219H67.3243" stroke="#3967F2" stroke-width="1.5" stroke-linecap="round" stroke-linejoin="round"/>
<path d="M1.86499 61.7566C3.53009 61.7474 5.91628 62.0353 8.74021 62.7966M33.1474 79.4296C28.0405 72.986 22.3134 68.7461 17.0437 66.0391" stroke="#002996" stroke-width="1.5" stroke-linecap="round" stroke-linejoin="round"/>
<path d="M12.4518 58.4043L15.317 60.1408" stroke="#002996" stroke-width="1.5" stroke-linecap="round" stroke-linejoin="round"/>
<path d="M18.4512 54.4043L21.3164 56.1408" stroke="#002996" stroke-width="1.5" stroke-linecap="round" stroke-linejoin="round"/>
<path d="M19.1112 46.2768L21.7211 47.8335" stroke="#002996" stroke-width="1.5" stroke-linecap="round" stroke-linejoin="round"/>
<path d="M4.27124 68.07C20.6354 51.8535 25.672 28.279 25.7952 18.0936C28.7437 25.3174 30.363 50.1025 12.0849 72.4927" stroke="#002996" stroke-width="1.5" stroke-linecap="round" stroke-linejoin="round"/>
<path d="M25.8018 18.1465C17.3191 15.8711 4.57436 21.5109 8.84314 37.2677L25.8018 18.1465Z" stroke="#002996" stroke-width="1.5" stroke-linecap="round" stroke-linejoin="round"/>
<path d="M25.8031 18.1465C34.2858 15.8711 47.0306 21.5109 42.7618 37.2677L25.8031 18.1465Z" stroke="#002996" stroke-width="1.5" stroke-linecap="round" stroke-linejoin="round"/>
<path d="M26.1432 18.436C30.5324 10.8289 43.5323 5.8049 51.6555 19.9652L36.9964 19.0865" stroke="#002996" stroke-width="1.5" stroke-linecap="round" stroke-linejoin="round"/>
<path d="M26.2867 19.0034C24.0113 10.5207 29.6511 -2.2241 45.4079 2.04468L34.5501 11.6746" stroke="#002996" stroke-width="1.5" stroke-linecap="round" stroke-linejoin="round"/>
<path d="M25.3182 19.0034C27.5937 10.5207 21.9539 -2.2241 6.19704 2.04468L16.4427 11.1316" stroke="#002996" stroke-width="1.5" stroke-linecap="round" stroke-linejoin="round"/>
<path d="M27.011 19.9652C18.8877 5.8049 5.88787 10.8289 1.49867 18.436L14.2548 19.2006" stroke="#002996" stroke-width="1.5" stroke-linecap="round" stroke-linejoin="round"/>
<circle cx="59.8094" cy="44.5551" r="12.4344" fill="#4D99F6"/>
</svg>
