<svg width="88" height="75" viewBox="0 0 88 75" fill="none" xmlns="http://www.w3.org/2000/svg">
<path d="M33.957 34.0667C33.957 32.6859 35.0763 31.5667 36.457 31.5667H48.457C49.8377 31.5667 50.957 32.6859 50.957 34.0667V41.3117C50.957 42.6924 49.8377 43.8117 48.457 43.8117H36.457C35.0763 43.8117 33.957 42.6924 33.957 41.3117V34.0667Z" fill="#4D99F6"/>
<path d="M55.957 34.0667C55.957 32.6859 57.0763 31.5667 58.457 31.5667H70.457C71.8377 31.5667 72.957 32.6859 72.957 34.0667V41.3117C72.957 42.6924 71.8377 43.8117 70.457 43.8117H58.457C57.0763 43.8117 55.957 42.6924 55.957 41.3117V34.0667Z" fill="#4D99F6"/>
<path d="M20.4727 56.0265H86.5117" stroke="#3967F2" stroke-width="1.5" stroke-linecap="round" stroke-linejoin="round"/>
<path d="M25.8557 71.84V65.965C25.8557 64.3082 27.1989 62.965 28.8557 62.965H78.0761C79.733 62.965 81.0761 64.3082 81.0761 65.965V71.84C81.0761 72.9446 81.9715 73.84 83.0761 73.84H84.5056C85.6101 73.84 86.5056 72.9446 86.5056 71.84V48.8118C86.5056 46.0503 84.267 43.8118 81.5056 43.8118H25.3633C22.6019 43.8118 20.3633 46.0503 20.3633 48.8118V71.84C20.3633 72.9446 21.2587 73.84 22.3633 73.84H23.8557C24.9603 73.84 25.8557 72.9446 25.8557 71.84Z" stroke="#002996" stroke-width="1.5" stroke-linecap="round" stroke-linejoin="round"/>
<path d="M11.0742 30.9514V73.0183" stroke="#002996" stroke-width="1.5" stroke-linecap="round" stroke-linejoin="round"/>
<path d="M6.07422 73.1115H16.0742" stroke="#002996" stroke-width="1.5" stroke-linecap="round" stroke-linejoin="round"/>
<path d="M1.24609 30.9626H20.9023L14.7267 21.6505H7.45434L1.24609 30.9626Z" stroke="#3967F2" stroke-width="1.5" stroke-linecap="round" stroke-linejoin="round"/>
<path d="M28.4336 30.8934C28.4336 28.1319 30.6722 25.8934 33.4336 25.8934H73.4336C76.195 25.8934 78.4336 28.1319 78.4336 30.8934V43.8117H28.4336V30.8934Z" stroke="#002996" stroke-width="1.5" stroke-linecap="round" stroke-linejoin="round"/>
<path d="M60.9414 15.413L68.197 9.61429L73.9495 12.02L79.7364 7.42457L86.7816 13.499" stroke="#3967F2" stroke-width="1.5" stroke-linecap="round" stroke-linejoin="round"/>
<path d="M79.7461 7.51697L70.6641 14.6171" stroke="#3967F2" stroke-width="1.5" stroke-linecap="round" stroke-linejoin="round"/>
<rect x="60.957" y="0.848816" width="25.9531" height="18.4453" rx="2" stroke="#002996" stroke-width="1.5" stroke-linecap="round" stroke-linejoin="round"/>
</svg>
