<svg width="82" height="79" viewBox="0 0 82 79" fill="none" xmlns="http://www.w3.org/2000/svg">
<path d="M19.0278 49.4793L25.2509 53.4306C30.3043 56.6392 36.7469 56.6779 41.8386 53.5304V53.5304C46.8727 50.4184 53.2331 50.4184 58.2671 53.5304V53.5304C63.3588 56.6779 69.8014 56.6392 74.8549 53.4306L81.0779 49.4793" stroke="#3967F2" stroke-width="1.5" stroke-linecap="round" stroke-linejoin="round" stroke-dasharray="1.5 5"/>
<path d="M49.0226 29.2316H47.0816C46.1611 29.2316 45.2914 29.6542 44.7227 30.3781L41.0836 35.0096L37.5476 30.4045C36.9798 29.665 36.1004 29.2316 35.1681 29.2316H18.9622V62.8067C18.9622 64.4636 17.6191 65.8067 15.9622 65.8067H7.09476C3.77187 65.8067 1.07812 68.5005 1.07812 71.8234V71.8234C1.07812 75.1463 3.77186 77.84 7.09476 77.84H59.1003C60.0039 77.84 60.8593 77.4328 61.429 76.7314L65.9719 71.1382L70.5168 76.7318C71.0864 77.4329 71.9417 77.84 72.8451 77.84H78.0521C79.7089 77.84 81.0521 76.4969 81.0521 74.84V32.2316C81.0521 30.5747 79.7089 29.2316 78.0521 29.2316H72.0465" stroke="#002996" stroke-width="1.5" stroke-linecap="round" stroke-linejoin="round"/>
<path d="M76.6145 16.8577C76.6145 28.1717 60.6014 41.9188 60.6014 41.9188C60.6014 41.9188 44.5884 28.1717 44.5884 16.8577C44.5884 8.0139 51.7577 0.844604 60.6014 0.844604C69.4452 0.844604 76.6145 8.0139 76.6145 16.8577Z" stroke="#002996" stroke-width="1.5" stroke-linecap="round" stroke-linejoin="round"/>
<circle cx="60.5998" cy="16.3574" r="7.6521" stroke="#3967F2" stroke-width="1.5" stroke-linecap="round" stroke-linejoin="round"/>
<path d="M27.3032 76.9937V72.1736" stroke="#002996" stroke-width="1.5" stroke-linecap="round" stroke-linejoin="round"/>
<path d="M11.9004 65.6983V60.8782" stroke="#002996" stroke-width="1.5" stroke-linecap="round" stroke-linejoin="round"/>
<path d="M8.81982 28.7315V23.9114" stroke="#002996" stroke-width="1.5" stroke-linecap="round" stroke-linejoin="round"/>
<path d="M1.09424 72.03V28.8716C1.09424 26.1102 3.33281 23.8716 6.09424 23.8716H15.9743C17.6312 23.8716 18.9743 25.2148 18.9743 26.8716V33.0846" stroke="#002996" stroke-width="1.5" stroke-linecap="round" stroke-linejoin="round"/>
<ellipse cx="32.6303" cy="42.1444" rx="6.57465" ry="3.28261" fill="#4D99F6"/>
<ellipse cx="48.4458" cy="66.3629" rx="8.21485" ry="4.10154" fill="#4D99F6"/>
</svg>
